<?xml version="1.0" standalone="no"?>
<!DOCTYPE svg PUBLIC "-//W3C//DTD SVG 20010904//EN"
 "http://www.w3.org/TR/2001/REC-SVG-20010904/DTD/svg10.dtd">
<svg version="1.0" xmlns="http://www.w3.org/2000/svg"
 width="808.000000pt" height="560.000000pt" viewBox="0 0 808.000000 560.000000"
 preserveAspectRatio="xMidYMid meet">

<g transform="translate(0.000000,560.000000) scale(0.100000,-0.100000)"
fill="#000000" stroke="none">
<path d="M3823 4899 c-392 -39 -764 -266 -970 -594 -203 -322 -251 -745 -126
-1115 116 -345 395 -637 739 -774 50 -20 98 -36 107 -36 10 0 21 19 32 57 29
99 28 102 -40 127 -350 133 -611 418 -700 764 -9 35 -15 68 -13 73 2 6 35 -28
75 -74 214 -254 529 -427 857 -472 38 -5 58 -15 84 -41 35 -35 35 -35 30 -112
-6 -90 -41 -182 -113 -294 -60 -92 -85 -157 -85 -221 0 -77 27 -143 78 -188
142 -124 369 -71 418 99 28 95 10 176 -66 293 -104 162 -146 319 -105 398 15
31 69 61 107 61 71 0 311 76 430 136 154 78 347 236 446 366 62 81 66 66 21
-77 -56 -180 -142 -320 -279 -455 -120 -119 -267 -212 -418 -266 -60 -21 -59
-16 -26 -130 15 -53 17 -55 42 -49 117 29 305 132 441 241 213 172 370 433
438 729 14 64 18 120 17 275 0 184 -2 201 -31 310 -97 366 -341 667 -678 838
-208 106 -473 154 -712 131z m329 -184 c239 -41 450 -154 617 -330 85 -90 147
-182 206 -308 43 -91 90 -238 83 -259 -2 -5 -37 29 -78 77 -197 229 -422 373
-690 441 -131 32 -370 44 -513 24 -316 -43 -614 -209 -839 -468 -72 -83 -81
-78 -54 29 75 292 321 578 606 708 78 35 214 77 290 90 88 14 280 12 372 -4z
m-416 -786 c92 -33 135 -157 88 -250 -31 -63 -122 -107 -192 -94 -39 7 -38 4
14 -61 44 -55 114 -100 192 -124 194 -60 400 32 483 217 36 78 48 178 30 248
-7 26 -9 50 -6 53 28 28 369 -242 391 -310 7 -23 -34 -76 -125 -160 -121 -112
-296 -198 -473 -234 -122 -25 -333 -15 -453 20 -116 35 -221 87 -315 156 -78
58 -200 184 -200 206 0 20 87 121 151 174 79 66 189 130 268 157 63 21 95 21
147 2z"/>
<path d="M1999 1500 c-103 -13 -149 -59 -149 -150 0 -45 4 -56 33 -84 20 -20
57 -41 97 -55 79 -26 110 -46 110 -70 0 -46 -86 -56 -105 -13 -9 21 -15 23
-75 20 -63 -3 -65 -4 -62 -28 8 -67 89 -119 188 -122 111 -3 184 58 184 153 0
68 -30 100 -133 139 -99 39 -109 46 -105 79 4 38 59 42 92 7 20 -22 32 -26 80
-26 56 0 56 0 56 30 0 43 -53 97 -110 113 -28 8 -66 11 -101 7z"/>
<path d="M2395 1479 c-3 -13 -4 -125 -3 -249 l3 -225 63 -3 62 -3 0 89 0 89
79 5 c60 3 85 10 110 27 93 66 84 219 -17 267 -27 13 -71 19 -164 22 l-127 5
-6 -24z m242 -105 c35 -48 2 -94 -69 -94 l-48 0 0 53 c0 30 3 57 8 61 13 14
95 -1 109 -20z"/>
<path d="M3065 1476 c-91 -42 -137 -118 -138 -226 -2 -152 105 -254 266 -252
99 1 185 60 225 151 23 55 20 159 -7 215 -27 55 -91 112 -140 126 -64 18 -151
12 -206 -14z m187 -106 c104 -81 54 -260 -72 -260 -39 0 -94 29 -108 57 -19
37 -23 110 -8 147 29 69 133 100 188 56z"/>
<path d="M3580 1450 l0 -49 63 -3 62 -3 2 -85 c1 -47 2 -136 2 -197 l1 -113
60 0 60 0 2 198 3 197 63 3 62 3 0 49 0 50 -190 0 -190 0 0 -50z"/>
<path d="M4137 1494 c-4 -4 -7 -117 -7 -251 l0 -244 63 3 62 3 0 245 0 245
-55 3 c-31 2 -59 0 -63 -4z"/>
<path d="M4580 1487 c-50 -16 -126 -95 -140 -147 -18 -69 -15 -150 8 -200 26
-56 46 -79 96 -109 47 -29 163 -40 221 -21 60 20 145 107 145 150 0 6 -28 10
-70 10 -41 0 -70 -4 -70 -10 0 -17 -63 -50 -95 -50 -34 0 -89 30 -103 57 -17
32 -21 107 -9 143 14 41 68 80 111 80 33 0 96 -33 96 -50 0 -6 29 -10 70 -10
42 0 70 4 70 10 0 44 -88 133 -147 149 -48 14 -137 12 -183 -2z"/>
<path d="M5098 1494 c-5 -4 -8 -117 -8 -251 l0 -243 60 0 60 0 0 79 c0 81 6
111 21 111 4 0 31 -43 60 -95 l51 -95 69 0 c38 0 69 3 69 6 0 3 -22 43 -50 89
-27 46 -50 87 -50 93 0 5 15 19 33 30 66 39 87 147 40 211 -37 50 -86 65 -223
69 -69 2 -128 0 -132 -4z m192 -104 c35 0 60 -23 60 -55 0 -40 -26 -56 -84
-53 l-51 3 -3 43 c-3 47 12 76 35 67 8 -3 27 -5 43 -5z"/>
<path d="M5626 1492 c-3 -5 2 -22 10 -38 152 -291 154 -295 154 -377 l0 -77
60 0 60 0 0 80 0 81 85 163 c47 90 85 167 85 170 0 4 -30 6 -67 4 l-68 -3 -44
-92 c-25 -51 -47 -93 -51 -93 -4 0 -26 42 -51 93 l-44 92 -62 3 c-34 2 -64 -1
-67 -6z"/>
<path d="M300 622 c0 -99 10 -109 97 -110 81 -1 93 14 93 115 0 66 -2 73 -20
73 -18 0 -20 -7 -20 -70 0 -55 -3 -70 -15 -70 -11 0 -15 16 -17 68 -3 59 -5
67 -23 67 -18 0 -20 -8 -23 -73 -4 -99 -26 -94 -30 6 -3 64 -5 72 -22 72 -18
0 -20 -7 -20 -78z"/>
<path d="M612 608 c3 -79 6 -93 21 -96 14 -3 17 4 17 32 0 34 2 36 35 36 32 0
35 -2 35 -30 0 -33 26 -52 40 -30 9 14 6 167 -3 176 -14 15 -37 -7 -37 -36 0
-28 -3 -30 -35 -30 -33 0 -35 2 -35 35 0 29 -4 35 -20 35 -20 0 -21 -5 -18
-92z"/>
<path d="M900 605 l0 -96 62 3 c50 2 63 6 66 21 3 14 -4 17 -42 17 -54 0 -65
24 -15 34 39 8 37 39 -4 44 -44 5 -33 30 15 34 31 2 44 8 46 21 3 15 -5 17
-62 17 l-66 0 0 -95z"/>
<path d="M1150 605 c0 -88 1 -95 20 -95 11 0 20 6 20 14 0 26 23 30 41 8 25
-32 53 -29 45 3 -4 16 -1 34 9 48 22 31 19 64 -10 92 -19 20 -34 25 -75 25
l-50 0 0 -95z m100 34 c14 -26 -3 -49 -36 -49 -21 0 -24 5 -24 35 0 31 3 35
25 35 14 0 29 -8 35 -21z"/>
<path d="M1420 605 l0 -95 65 0 c58 0 65 2 65 20 0 17 -7 20 -45 20 -51 0 -66
26 -17 32 19 2 27 9 27 23 0 14 -8 21 -27 23 -49 6 -34 32 17 32 38 0 45 3 45
20 0 18 -7 20 -65 20 l-65 0 0 -95z"/>
<path d="M1842 608 l3 -93 63 -3 c56 -3 62 -1 62 17 0 16 -8 20 -42 23 -48 3
-63 25 -21 30 20 2 29 9 31 26 3 19 -1 22 -28 22 -48 0 -32 24 18 28 34 3 42
7 42 23 0 17 -7 19 -65 19 l-66 0 3 -92z"/>
<path d="M2070 698 c0 -2 13 -43 28 -93 23 -73 32 -91 49 -93 18 -3 25 8 48
80 16 46 30 89 33 96 3 10 -2 13 -19 10 -19 -2 -27 -13 -38 -50 -8 -27 -17
-48 -21 -48 -4 0 -13 21 -21 48 -11 35 -20 48 -37 50 -12 2 -22 2 -22 0z"/>
<path d="M2344 687 c-3 -8 -4 -49 -2 -93 l3 -79 65 0 c51 0 65 3 65 15 0 10
-14 17 -45 20 -51 6 -56 21 -10 33 43 11 37 41 -8 45 -47 5 -35 26 19 32 30 3
44 10 44 20 0 21 -123 28 -131 7z"/>
<path d="M2594 687 c-3 -8 -4 -49 -2 -93 3 -67 6 -79 21 -82 12 -3 20 4 24 17
7 27 29 27 43 1 6 -11 20 -20 31 -20 16 0 19 4 14 21 -4 11 1 35 10 55 14 30
15 41 4 65 -6 16 -20 34 -30 39 -27 15 -109 12 -115 -3z m105 -45 c13 -25 -5
-52 -34 -52 -22 0 -25 5 -25 35 0 31 3 35 25 35 13 0 29 -8 34 -18z"/>
<path d="M2860 655 c0 -36 5 -51 24 -68 13 -12 26 -34 28 -47 4 -32 38 -41 38
-10 0 12 14 38 30 57 23 25 30 44 30 73 0 33 -3 40 -19 40 -15 0 -20 -8 -23
-36 -6 -71 -68 -74 -68 -4 0 33 -3 40 -20 40 -17 0 -20 -7 -20 -45z"/>
<path d="M3282 683 c2 -11 14 -19 30 -21 26 -3 27 -5 30 -75 2 -58 6 -72 20
-75 15 -3 18 7 20 70 3 71 4 73 31 76 19 2 27 9 27 23 0 17 -8 19 -81 19 -71
0 -80 -2 -77 -17z"/>
<path d="M3554 687 c-3 -8 -4 -49 -2 -93 l3 -79 65 0 c53 0 65 3 68 17 3 14
-6 17 -44 20 -52 3 -72 25 -27 30 20 2 29 9 31 26 3 19 -1 22 -28 22 -48 0
-31 24 21 30 30 3 44 10 44 20 0 21 -123 28 -131 7z"/>
<path d="M3824 675 c-22 -22 -25 -32 -22 -92 2 -53 7 -68 19 -71 10 -2 19 5
22 18 6 25 67 30 67 5 0 -20 30 -32 39 -16 4 7 6 40 5 74 -3 52 -7 65 -29 85
-34 29 -70 28 -101 -3z m74 -27 c7 -7 12 -22 12 -35 0 -20 -5 -23 -35 -23 -37
0 -44 14 -25 51 12 22 30 25 48 7z"/>
<path d="M4082 608 c3 -79 6 -93 21 -96 10 -2 17 3 17 13 0 27 31 30 50 5 21
-28 57 -22 41 7 -6 13 -5 24 5 38 8 10 14 33 14 51 0 46 -38 74 -102 74 l-49
0 3 -92z m101 31 c16 -26 1 -49 -33 -49 -26 0 -30 3 -30 28 0 16 3 32 7 36 12
11 45 2 56 -15z"/>
<path d="M4510 680 c0 -15 7 -20 25 -20 24 0 25 -3 25 -59 0 -67 6 -91 25 -91
19 0 25 24 25 91 0 56 1 59 25 59 18 0 25 5 25 20 0 18 -7 20 -75 20 -68 0
-75 -2 -75 -20z"/>
<path d="M4774 687 c-3 -8 -4 -49 -2 -93 l3 -79 68 -3 c62 -3 67 -1 67 18 0
17 -6 20 -45 20 -53 0 -63 24 -14 34 40 8 36 39 -6 46 -45 8 -35 25 18 28 39
3 47 6 47 23 0 17 -7 19 -65 19 -46 0 -67 -4 -71 -13z"/>
<path d="M5030 606 l0 -96 65 0 c58 0 65 2 65 20 0 17 -7 20 -45 20 l-44 0 -3
72 c-2 60 -6 73 -20 76 -16 3 -18 -6 -18 -92z"/>
<path d="M5272 608 l3 -93 63 -3 c56 -3 62 -1 62 17 0 16 -8 20 -42 23 l-43 3
-3 73 c-3 64 -5 72 -23 72 -18 0 -20 -6 -17 -92z"/>
<path d="M5532 693 c-7 -3 -18 -16 -23 -30 -14 -38 11 -71 61 -79 61 -10 53
-34 -11 -34 -43 0 -50 -3 -47 -17 2 -14 15 -19 53 -21 54 -3 79 9 90 45 9 31
-34 73 -75 73 -20 0 -30 5 -30 15 0 11 12 15 50 15 43 0 50 3 50 20 0 18 -6
20 -52 19 -29 0 -59 -3 -66 -6z"/>
<path d="M5965 675 c-22 -21 -25 -33 -25 -95 0 -62 2 -70 19 -70 10 0 21 9 24
20 4 14 14 20 35 20 21 0 31 -6 35 -20 3 -11 12 -20 21 -20 13 0 16 13 16 74
0 69 -2 76 -26 95 -35 28 -69 26 -99 -4z m73 -27 c7 -7 12 -22 12 -35 0 -20
-5 -23 -35 -23 -30 0 -35 3 -35 23 0 24 17 47 35 47 6 0 16 -5 23 -12z"/>
<path d="M6401 681 c-42 -42 -18 -86 50 -97 53 -9 44 -28 -15 -32 -38 -3 -47
-6 -44 -20 2 -13 16 -18 51 -20 39 -3 51 1 71 21 41 41 20 80 -50 95 -52 11
-46 26 13 32 34 4 48 9 48 20 0 11 -14 16 -52 18 -42 2 -56 -1 -72 -17z"/>
<path d="M6635 690 c-10 -16 4 -30 31 -30 23 0 24 -2 24 -75 0 -68 2 -75 20
-75 18 0 20 7 20 74 0 74 0 75 28 78 16 2 27 9 27 18 0 12 -16 16 -72 18 -42
2 -74 -1 -78 -8z"/>
<path d="M6923 682 c-33 -26 -46 -68 -33 -108 24 -71 108 -88 162 -34 27 28
30 36 25 73 -10 76 -96 115 -154 69z m104 -48 c15 -24 15 -29 2 -53 -18 -32
-54 -39 -80 -15 -23 21 -24 51 -2 76 24 26 59 23 80 -8z"/>
<path d="M7200 605 c0 -88 1 -95 20 -95 11 0 20 7 20 15 0 26 30 30 46 6 22
-31 48 -28 40 5 -5 18 -2 32 10 45 46 51 -2 119 -87 119 l-49 0 0 -95z m101
39 c18 -21 0 -48 -35 -52 -24 -3 -26 0 -26 32 0 31 3 36 24 36 13 0 29 -7 37
-16z"/>
<path d="M7460 660 c0 -29 7 -48 30 -73 17 -19 30 -45 30 -57 0 -31 34 -22 38
10 2 13 15 35 28 47 19 17 24 32 24 68 0 39 -3 46 -17 43 -13 -2 -20 -16 -23
-43 -8 -67 -70 -57 -70 11 0 27 -4 34 -20 34 -17 0 -20 -7 -20 -40z"/>
</g>
</svg>
